<svg width="56" height="57" viewBox="0 0 56 57" fill="none" xmlns="http://www.w3.org/2000/svg">
<path d="M47.7962 47.918C36.9388 58.7986 19.3359 58.8679 8.38604 48.126C16.1249 55.68 28.53 55.6107 36.1996 47.9411C43.9153 40.2023 43.9153 27.6585 36.1765 19.9428C28.4376 12.2039 15.8938 12.227 8.17813 19.9659C0.531729 27.6123 0.485527 39.9944 8.01643 47.7332C-2.7255 36.7834 -2.6562 19.2266 8.20124 8.34607C19.128 -2.6038 36.8464 -2.6038 47.7962 8.32296C58.723 19.2497 58.723 36.9913 47.7962 47.918Z" fill="#222A58"/>
<path d="M36.2004 47.9183C28.5308 55.5878 16.1256 55.6571 8.38679 48.1031C8.31749 48.0338 8.27128 47.9876 8.20198 47.9183L8.17888 47.8952C12.7298 52.423 20.0759 52.423 24.6268 47.8952C29.1546 43.3443 29.1546 35.9982 24.6268 31.4473C20.0759 26.9426 12.7067 26.9426 8.17888 31.4704C3.67419 35.9751 3.65109 43.2519 8.08648 47.8028C8.08648 47.8028 8.08648 47.8028 8.06338 47.7797C8.06338 47.7797 8.06338 47.7797 8.04027 47.7566L8.01717 47.7335L7.99407 47.7104C0.486259 39.9947 0.532461 27.6125 8.20198 19.943C15.9408 12.2042 28.4615 12.2042 36.2004 19.9199C43.9392 27.6587 43.9392 40.2026 36.2004 47.9183Z" fill="#32439C"/>
<path opacity="0.4" d="M8.17706 47.9168C8.13122 47.8709 8.08539 47.8251 8.03955 47.7792L8.06247 47.8021C8.1083 47.848 8.15414 47.8938 8.17706 47.9168Z" fill="#4863F7"/>
<path d="M24.6258 47.9178C20.098 52.4687 12.7288 52.4687 8.17795 47.9178C8.13175 47.8716 8.10864 47.8485 8.06244 47.8023C3.62706 43.2514 3.65016 35.9745 8.15485 31.4698C12.6826 26.9189 20.0518 26.9189 24.6027 31.4698C29.1536 35.9976 29.1536 43.3669 24.6258 47.9178Z" fill="#4863F7"/>
</svg>
